<?xml version="1.0" encoding="UTF-8" standalone="no"?>
<!-- Created with Inkscape (http://www.inkscape.org/) -->

<svg
   width="200"
   height="200"
   viewBox="0 0 52.916668 52.916666"
   version="1.1"
   id="svg8"
   inkscape:version="1.4 (86a8ad7, 2024-10-11)"
   sodipodi:docname="nonbinary.svg"
   xmlns:inkscape="http://www.inkscape.org/namespaces/inkscape"
   xmlns:sodipodi="http://sodipodi.sourceforge.net/DTD/sodipodi-0.dtd"
   xmlns="http://www.w3.org/2000/svg"
   xmlns:svg="http://www.w3.org/2000/svg"
   xmlns:rdf="http://www.w3.org/1999/02/22-rdf-syntax-ns#"
   xmlns:cc="http://creativecommons.org/ns#"
   xmlns:dc="http://purl.org/dc/elements/1.1/">
  <defs
     id="defs2">
    <inkscape:path-effect
       effect="envelope"
       id="path-effect4658"
       is_visible="true"
       yy="true"
       xx="true"
       bendpath1="m -199.08406,108.42369 h 7.0057"
       bendpath2="m -192.07836,108.42369 v 6.75242"
       bendpath3="m -199.08406,115.17611 h 7.0057"
       bendpath4="m -199.08406,108.42369 v 6.75242" />
    <inkscape:path-effect
       effect="bend_path"
       id="path-effect4656"
       is_visible="true"
       bendpath="m -192.00142,114.60623 c 2.12577,-0.53066 4.48261,0.85111 7.0057,0"
       prop_scale="1"
       scale_y_rel="false"
       vertical="false"
       bendpath-nodetypes="cc" />
    <inkscape:path-effect
       effect="bounding_box"
       id="path-effect4654"
       is_visible="true"
       linkedpath=""
       visualbounds="false" />
  </defs>
  <sodipodi:namedview
     id="base"
     pagecolor="#ffffff"
     bordercolor="#666666"
     borderopacity="1.0"
     inkscape:pageopacity="0.0"
     inkscape:pageshadow="2"
     inkscape:zoom="2"
     inkscape:cx="40"
     inkscape:cy="80.25"
     inkscape:document-units="mm"
     inkscape:current-layer="layer1"
     showgrid="false"
     fit-margin-top="0"
     fit-margin-left="0"
     fit-margin-right="0"
     fit-margin-bottom="0"
     inkscape:window-width="1920"
     inkscape:window-height="1017"
     inkscape:window-x="-8"
     inkscape:window-y="-8"
     inkscape:window-maximized="1"
     showguides="false"
     inkscape:object-nodes="true"
     units="px"
     inkscape:snap-page="true"
     inkscape:showpageshadow="2"
     inkscape:pagecheckerboard="0"
     inkscape:deskcolor="#d1d1d1" />
  <metadata
     id="metadata5">
    <rdf:RDF>
      <cc:Work
         rdf:about="">
        <dc:format>image/svg+xml</dc:format>
        <dc:type
           rdf:resource="http://purl.org/dc/dcmitype/StillImage" />
        <dc:title />
      </cc:Work>
    </rdf:RDF>
  </metadata>
  <g
     inkscape:label="Layer 1"
     inkscape:groupmode="layer"
     id="layer1"
     transform="translate(249.80447,-91.409467)">
    <g
       style="stroke-width:0.5"
       id="g5334"
       transform="matrix(2,0,0,2,-249.80447,91.409467)">
      <rect
         ry="1.984375"
         rx="1.984375"
         style="opacity:1;fill:#222222;fill-opacity:1;fill-rule:nonzero;stroke:none;stroke-width:0.25;stroke-linecap:butt;stroke-linejoin:round;stroke-miterlimit:4;stroke-dasharray:none;stroke-dashoffset:0;stroke-opacity:0.90944878;paint-order:normal"
         id="rect5322"
         width="26.458334"
         height="26.458334"
         x="0"
         y="-1.110223e-16" />
      <rect
         ry="1.3229166"
         rx="1.3229166"
         y="1.322917"
         x="1.322917"
         height="23.8125"
         width="23.8125"
         id="rect5324"
         style="opacity:1;fill:#00897b;fill-opacity:1;fill-rule:nonzero;stroke:none;stroke-width:0.25;stroke-linecap:butt;stroke-linejoin:round;stroke-miterlimit:4;stroke-dasharray:none;stroke-dashoffset:0;stroke-opacity:0.90944878;paint-order:normal" />
      <path
         inkscape:connector-curvature="0"
         id="path5326"
         d="m 0.72760467,18.520836 v 4.167188 c 0,1.539081 1.23904383,2.778124 2.77812503,2.778124 H 22.952604 c 1.539081,0 2.778125,-1.239043 2.778125,-2.778124 v -4.167188 z"
         style="opacity:1;fill:#222222;fill-opacity:1;fill-rule:nonzero;stroke:none;stroke-width:0.24999999;stroke-linecap:butt;stroke-linejoin:round;stroke-miterlimit:4;stroke-dasharray:none;stroke-dashoffset:0;stroke-opacity:0.90944878;paint-order:normal" />
      <path
         d="m 5.4345398,23.128555 h -0.333375 l -1.21285,-1.882775 h -0.0127 q 0.00635,0.111125 0.015875,0.276225 0.00953,0.1651 0.00953,0.339725 v 1.266825 h -0.263525 v -2.26695 h 0.3302 l 1.209675,1.876425 h 0.0127 q -0.00317,-0.0508 -0.00953,-0.1524 -0.00317,-0.1016 -0.00953,-0.22225 -0.00317,-0.12065 -0.00317,-0.22225 v -1.279525 h 0.2667 z m 2.5939755,-1.13665 q 0,0.352425 -0.12065,0.61595 -0.117475,0.26035 -0.3492499,0.4064 -0.231775,0.14605 -0.574675,0.14605 -0.352425,0 -0.587375,-0.14605 -0.231775,-0.14605 -0.346075,-0.409575 -0.1143,-0.263525 -0.1143,-0.61595 0,-0.34925 0.1143,-0.6096 0.1143,-0.26035 0.346075,-0.4064 0.23495,-0.14605 0.59055,-0.14605 0.339725,0 0.5715,0.14605 0.2317749,0.142875 0.3492499,0.4064 0.12065,0.26035 0.12065,0.612775 z m -1.7906999,0 q 0,0.428625 0.180975,0.676275 0.180975,0.244475 0.56515,0.244475 0.38735,0 0.56515,-0.244475 0.1777999,-0.24765 0.1777999,-0.676275 0,-0.428625 -0.1777999,-0.669925 -0.1778,-0.244475 -0.561975,-0.244475 -0.384175,0 -0.568325,0.244475 -0.180975,0.2413 -0.180975,0.669925 z m 4.0894006,1.13665 H 9.9938406 L 8.7809907,21.24578 h -0.0127 q 0.00635,0.111125 0.015875,0.276225 0.00953,0.1651 0.00953,0.339725 v 1.266825 h -0.263525 v -2.26695 h 0.3302 l 1.2096753,1.876425 h 0.0127 q -0.0032,-0.0508 -0.0095,-0.1524 -0.0032,-0.1016 -0.0095,-0.22225 -0.0032,-0.12065 -0.0032,-0.22225 v -1.279525 h 0.2667 z m 0.434975,-0.727075 v -0.24765 h 0.76835 v 0.24765 z m 1.851027,-1.539875 q 0.425449,0 0.641349,0.127 0.219075,0.123825 0.219075,0.434975 0,0.200025 -0.111125,0.333375 -0.111125,0.130175 -0.320675,0.168275 v 0.01588 q 0.142875,0.02222 0.257175,0.08255 0.117475,0.06032 0.18415,0.17145 0.06668,0.111125 0.06668,0.288925 0,0.307975 -0.212725,0.47625 -0.20955,0.168275 -0.574674,0.168275 h -0.796925 v -2.26695 z m 0.05715,0.9652 q 0.292099,0 0.400049,-0.09208 0.10795,-0.09525 0.10795,-0.2794 0,-0.187325 -0.13335,-0.2667 -0.130174,-0.08255 -0.419099,-0.08255 h -0.37465 v 0.720725 z m -0.4191,0.238125 v 0.822325 h 0.4572 q 0.301624,0 0.419099,-0.117475 0.117475,-0.117475 0.117475,-0.307975 0,-0.1778 -0.123825,-0.28575 -0.12065,-0.111125 -0.434974,-0.111125 z m 2.416174,1.063625 h -0.81915 v -0.1651 l 0.2667,-0.06032 v -1.812925 l -0.2667,-0.0635 v -0.1651 h 0.81915 v 0.1651 l -0.2667,0.0635 v 1.812925 l 0.2667,0.06032 z m 2.235202,0 h -0.333375 l -1.21285,-1.882775 h -0.0127 q 0.0063,0.111125 0.01587,0.276225 0.0095,0.1651 0.0095,0.339725 v 1.266825 h -0.263525 v -2.26695 h 0.3302 l 1.209675,1.876425 h 0.0127 q -0.0032,-0.0508 -0.0095,-0.1524 -0.0032,-0.1016 -0.0095,-0.22225 -0.0032,-0.12065 -0.0032,-0.22225 v -1.279525 h 0.2667 z m 2.03835,0 -0.27305,-0.701675 h -0.898525 l -0.269875,0.701675 h -0.288925 l 0.885825,-2.276475 h 0.257175 l 0.88265,2.276475 z M 18.328219,21.48708 q -0.0095,-0.0254 -0.03175,-0.09207 -0.02222,-0.06668 -0.04445,-0.136525 -0.01905,-0.07302 -0.03175,-0.111125 -0.02222,0.09842 -0.0508,0.193675 -0.02858,0.09208 -0.04763,0.14605 l -0.257175,0.6858 h 0.71755 z m 1.844675,-0.625475 q 0.422275,0 0.6223,0.161925 0.2032,0.15875 0.2032,0.4826 0,0.180975 -0.06668,0.301625 -0.06668,0.12065 -0.17145,0.193675 -0.1016,0.06985 -0.2159,0.111125 l 0.6223,1.016 H 20.833294 L 20.284019,22.19193 h -0.45085 v 0.936625 h -0.28575 v -2.26695 z m -0.01588,0.24765 h -0.32385 v 0.841375 h 0.339725 q 0.276225,0 0.403225,-0.10795 0.127,-0.111125 0.127,-0.32385 0,-0.22225 -0.13335,-0.314325 -0.13335,-0.09525 -0.41275,-0.09525 z m 1.9558,0.866775 0.59055,-1.114425 h 0.307975 l -0.75565,1.387475 v 0.879475 h -0.28575 V 22.26178 l -0.75565,-1.400175 h 0.31115 z"
         id="text12"
         style="font-size:3.175px;line-height:0;text-align:center;letter-spacing:0px;text-anchor:middle;fill:#ffffff;stroke:#ffffff;stroke-width:0.0661458"
         aria-label="NON-BINARY" />
      <path
         d="m 12.740312,15.268189 q -0.438119,-0.508783 -1.130629,-1.695943 -0.946901,1.695943 -1.7807403,2.444985 -1.0458317,0.904503 -2.6711107,0.904503 -1.9079363,0 -3.1657609,-1.427419 -1.3284889,-1.498083 -1.3284889,-3.971334 0,-2.3743206 1.3284889,-3.9854668 1.1871603,-1.427419 3.1940266,-1.427419 1.0316989,0 1.7948733,0.4239859 0.8903703,0.4663844 1.498083,1.2719575 0.565315,0.7207759 1.130629,1.6959433 0.946902,-1.6959433 1.780741,-2.444985 1.045831,-0.9045031 2.67111,-0.9045031 1.907937,0 3.165761,1.427419 1.328489,1.4980833 1.328489,3.9713342 0,2.37432 -1.328489,3.985467 -1.18716,1.427419 -3.194026,1.427419 -1.031699,0 -1.794874,-0.423986 -0.763174,-0.381588 -1.498083,-1.271958 z m -5.7379415,-0.19786 q 2.3319221,0 3.7310755,-3.391887 -1.7948735,-3.7028091 -3.7310755,-3.7028091 -1.4132861,0 -2.134062,1.017566 -0.7773074,1.0882301 -0.7773074,2.5297821 0,1.58288 0.7773074,2.558048 0.7914402,0.9893 2.134062,0.9893 z M 16.216996,8.0038986 q -2.105796,0 -3.731075,3.3918864 1.78074,3.70281 3.731075,3.70281 1.413286,0 2.134062,-1.017566 0.777307,-1.08823 0.777307,-2.529782 0,-1.5828807 -0.777307,-2.5580481 -0.79144,-0.9893003 -2.134062,-0.9893003 z"
         id="text3"
         style="font-size:28.9441px;line-height:0;-inkscape-font-specification:sans-serif;letter-spacing:0px;fill:#222222;stroke:#222222;stroke-width:0.723599"
         transform="scale(1.1394942,0.87758235)"
         aria-label="∞" />
    </g>
  </g>
</svg>
