<?xml version="1.0" encoding="UTF-8" standalone="no"?>
<!-- Created with Inkscape (http://www.inkscape.org/) -->

<svg
   width="200"
   height="200"
   viewBox="0 0 52.916668 52.916666"
   version="1.1"
   id="svg8"
   inkscape:version="1.4 (86a8ad7, 2024-10-11)"
   sodipodi:docname="pride.svg"
   xmlns:inkscape="http://www.inkscape.org/namespaces/inkscape"
   xmlns:sodipodi="http://sodipodi.sourceforge.net/DTD/sodipodi-0.dtd"
   xmlns="http://www.w3.org/2000/svg"
   xmlns:svg="http://www.w3.org/2000/svg"
   xmlns:rdf="http://www.w3.org/1999/02/22-rdf-syntax-ns#"
   xmlns:cc="http://creativecommons.org/ns#"
   xmlns:dc="http://purl.org/dc/elements/1.1/">
  <defs
     id="defs2">
    <inkscape:path-effect
       effect="envelope"
       id="path-effect4658"
       is_visible="true"
       yy="true"
       xx="true"
       bendpath1="m -199.08406,108.42369 h 7.0057"
       bendpath2="m -192.07836,108.42369 v 6.75242"
       bendpath3="m -199.08406,115.17611 h 7.0057"
       bendpath4="m -199.08406,108.42369 v 6.75242" />
    <inkscape:path-effect
       effect="bend_path"
       id="path-effect4656"
       is_visible="true"
       bendpath="m -192.00142,114.60623 c 2.12577,-0.53066 4.48261,0.85111 7.0057,0"
       prop_scale="1"
       scale_y_rel="false"
       vertical="false"
       bendpath-nodetypes="cc" />
    <inkscape:path-effect
       effect="bounding_box"
       id="path-effect4654"
       is_visible="true"
       linkedpath=""
       visualbounds="false" />
  </defs>
  <sodipodi:namedview
     id="base"
     pagecolor="#ffffff"
     bordercolor="#666666"
     borderopacity="1.0"
     inkscape:pageopacity="0.0"
     inkscape:pageshadow="2"
     inkscape:zoom="2.8284271"
     inkscape:cx="100.76272"
     inkscape:cy="67.351921"
     inkscape:document-units="px"
     inkscape:current-layer="g5375"
     showgrid="false"
     fit-margin-top="0"
     fit-margin-left="0"
     fit-margin-right="0"
     fit-margin-bottom="0"
     inkscape:window-width="1920"
     inkscape:window-height="1017"
     inkscape:window-x="-8"
     inkscape:window-y="-8"
     inkscape:window-maximized="1"
     showguides="false"
     inkscape:object-nodes="true"
     units="px"
     inkscape:snap-page="true"
     inkscape:showpageshadow="2"
     inkscape:pagecheckerboard="0"
     inkscape:deskcolor="#d1d1d1" />
  <metadata
     id="metadata5">
    <rdf:RDF>
      <cc:Work
         rdf:about="">
        <dc:format>image/svg+xml</dc:format>
        <dc:type
           rdf:resource="http://purl.org/dc/dcmitype/StillImage" />
        <dc:title />
      </cc:Work>
    </rdf:RDF>
  </metadata>
  <g
     inkscape:label="Layer 1"
     inkscape:groupmode="layer"
     id="layer1"
     transform="translate(98.048812,-95.14345)">
    <g
       style="stroke-width:0.5"
       id="g5375"
       transform="matrix(2,0,0,2,-98.048812,95.143449)">
      <rect
         ry="1.984375"
         rx="1.984375"
         style="opacity:1;fill:#222222;fill-opacity:1;fill-rule:nonzero;stroke:none;stroke-width:0.25;stroke-linecap:butt;stroke-linejoin:round;stroke-miterlimit:4;stroke-dasharray:none;stroke-dashoffset:0;stroke-opacity:0.90944878;paint-order:normal"
         id="rect5363"
         width="26.458334"
         height="26.458334"
         x="0"
         y="-1.110223e-16" />
      <rect
         ry="1.3229166"
         rx="1.3229166"
         y="1.322917"
         x="1.322917"
         height="23.8125"
         width="23.8125"
         id="rect5365"
         style="opacity:1;fill:#9c27b0;fill-opacity:1;fill-rule:nonzero;stroke:none;stroke-width:0.25;stroke-linecap:butt;stroke-linejoin:round;stroke-miterlimit:4;stroke-dasharray:none;stroke-dashoffset:0;stroke-opacity:0.90944878;paint-order:normal" />
      <path
         inkscape:connector-curvature="0"
         id="path5369"
         d="m 0.72760492,18.520836 v 4.167188 c 0,1.539081 1.23904398,2.778124 2.77812498,2.778124 H 22.952604 c 1.539081,0 2.778125,-1.239043 2.778125,-2.778124 v -4.167188 z"
         style="opacity:1;fill:#222222;fill-opacity:1;fill-rule:nonzero;stroke:none;stroke-width:0.24999997;stroke-linecap:butt;stroke-linejoin:round;stroke-miterlimit:4;stroke-dasharray:none;stroke-dashoffset:0;stroke-opacity:0.90944878;paint-order:normal" />
      <path
         d="m 9.5509304,20.861605 q 0.4445,0 0.6476996,0.174625 0.2032,0.174625 0.2032,0.492125 0,0.187325 -0.08573,0.352425 -0.08255,0.161925 -0.282575,0.263525 -0.1968496,0.1016 -0.5365746,0.1016 h -0.26035 v 0.88265 h -0.28575 v -2.26695 z m -0.0254,0.244475 h -0.288925 v 0.89535 h 0.2286 q 0.32385,0 0.4826,-0.104775 0.1587496,-0.104775 0.1587496,-0.3556 0,-0.219075 -0.1396996,-0.327025 -0.1397,-0.10795 -0.441325,-0.10795 z m 1.9716736,-0.244475 q 0.422275,0 0.6223,0.161925 0.2032,0.15875 0.2032,0.4826 0,0.180975 -0.06668,0.301625 -0.06668,0.12065 -0.17145,0.193675 -0.1016,0.06985 -0.2159,0.111125 l 0.6223,1.016 H 12.157604 L 11.608329,22.19193 h -0.45085 v 0.936625 h -0.28575 v -2.26695 z m -0.01587,0.24765 h -0.32385 v 0.841375 h 0.339725 q 0.276225,0 0.403225,-0.10795 0.127,-0.111125 0.127,-0.32385 0,-0.22225 -0.13335,-0.314325 -0.13335,-0.09525 -0.41275,-0.09525 z m 2.003424,2.0193 h -0.81915 v -0.1651 l 0.2667,-0.06032 v -1.812925 l -0.2667,-0.0635 v -0.1651 h 0.81915 v 0.1651 l -0.2667,0.0635 v 1.812925 l 0.2667,0.06032 z m 2.254252,-1.1557 q 0,0.574675 -0.314325,0.866775 -0.31115,0.288925 -0.86995,0.288925 h -0.631825 v -2.26695 h 0.6985 q 0.3429,0 0.593725,0.127 0.250825,0.127 0.38735,0.37465 0.136525,0.244475 0.136525,0.6096 z m -0.301625,0.0095 q 0,-0.454025 -0.225425,-0.663575 -0.22225,-0.212725 -0.631825,-0.212725 h -0.371475 v 1.778 h 0.307975 q 0.92075,0 0.92075,-0.9017 z m 2.070099,1.146175 h -1.266825 v -2.26695 h 1.266825 v 0.250825 h -0.981075 v 0.708025 h 0.923925 v 0.24765 h -0.923925 v 0.809625 h 0.981075 z"
         id="text12"
         style="font-size:3.175px;line-height:0;text-align:center;letter-spacing:0px;text-anchor:middle;fill:#ffffff;stroke:#ffffff;stroke-width:0.0661458"
         aria-label="PRIDE" />
      <path
         d="m 16.718287,4.0230597 q 0.374578,0 0.818522,0.034683 0.443943,0.027746 0.894824,0.097113 0.457817,0.069366 0.887887,0.1803522 0.430071,0.1040493 0.776902,0.2497183 l 0.617359,0.2635916 v 9.1424664 l -0.235845,-0.09711 q -0.520247,-0.215035 -0.943381,-0.374577 -0.423134,-0.166479 -0.846267,-0.277465 -0.423134,-0.110986 -0.894825,-0.166479 -0.464753,-0.05549 -1.075176,-0.05549 -0.312148,0 -0.652042,0.02081 -0.332958,0.02081 -0.672852,0.06937 -0.339895,0.04856 -0.665916,0.131796 -0.326021,0.0763 -0.617359,0.194225 -0.367641,0.152606 -0.790775,0.263592 -0.423134,0.104049 -0.867078,0.173415 -0.443943,0.06937 -0.887887,0.10405 -0.437007,0.02775 -0.832395,0.02775 -0.499436,0 -1.0058096,-0.03468 -0.4994368,-0.04162 -0.9850002,-0.159542 v 5.181656 H 6.2509263 V 5.9861235 Q 6.0081445,5.7433417 5.8763487,5.4311938 5.7445529,5.1121092 5.7445529,4.7652782 q 0,-0.3607043 0.1387325,-0.6728522 Q 6.0220178,3.7733414 6.2578629,3.5374963 6.5006446,3.3016512 6.8127926,3.1698554 7.1318771,3.031123 7.4925814,3.031123 q 0.3745775,0 0.6936621,0.145669 0.3190846,0.1387324 0.5549297,0.3815141 0.2358451,0.2427818 0.3676409,0.568803 0.1387324,0.3190845 0.1387324,0.6867254 0,0.034683 -0.013873,0.076303 0.7352818,0.1248591 1.4983097,0.1248591 0.450881,0 0.901761,-0.04162 0.45088,-0.04162 0.887888,-0.1387324 0.381514,-0.076303 0.742218,-0.2080986 0.360704,-0.1317958 0.735282,-0.2427818 0.658979,-0.1872887 1.345704,-0.2705282 0.686726,-0.090176 1.373451,-0.090176 z M 19.735717,6.50637 Q 19.492936,6.416194 19.236281,6.3537644 18.986562,6.2843982 18.729907,6.2289052 V 5.2161585 l -0.0763,-0.02081 q -0.228908,-0.055493 -0.464753,-0.097113 -0.228909,-0.04162 -0.464754,-0.04162 v 1.0127466 q -0.249718,-0.027747 -0.499436,-0.04162 -0.249719,-0.02081 -0.499437,-0.02081 V 5.0149965 q -0.249718,0 -0.499437,0.013873 -0.242782,0.013873 -0.4925,0.027747 v 1.0127466 q -0.256655,0.027747 -0.506373,0.06243 -0.242782,0.034683 -0.485564,0.097113 V 5.2092219 q -0.256655,0.02081 -0.520246,0.110986 -0.256655,0.090176 -0.485564,0.1872887 V 6.50637 Q 13.492759,6.6104194 13.236104,6.6797856 12.986385,6.7491518 12.72973,6.8046447 V 5.8196446 q -0.221972,0.013873 -0.457817,0.083239 -0.235845,0.06243 -0.457817,0.06243 -0.02081,0 -0.04162,0 -0.02081,-0.00694 -0.04162,-0.00694 v 0.9988734 q -0.242782,0.027746 -0.4925,0.04162 -0.249719,0.013873 -0.499437,0.013873 V 6.0069333 q -0.256655,0 -0.506373,-0.02081 Q 9.9828283,5.958377 9.73311,5.958377 V 6.9572504 Q 9.4833916,6.9295039 9.2336733,6.8948208 8.9839549,6.8532011 8.7411732,6.8046447 V 5.8196446 Q 8.4845182,5.7641516 8.2347999,5.6947854 7.9850815,5.6184826 7.7422998,5.5074966 7.9642716,5.4034473 8.1099407,5.2092219 q 0.145669,-0.201162 0.145669,-0.4439437 0,-0.1526057 -0.06243,-0.2844015 Q 8.1307505,4.3421443 8.0267012,4.2450316 7.9226519,4.1409823 7.7839195,4.0854893 q -0.1387324,-0.06243 -0.2913381,-0.06243 -0.1526056,0 -0.2913381,0.06243 -0.1317958,0.055493 -0.2358451,0.1595423 -0.1040493,0.097113 -0.1664789,0.2358451 -0.055493,0.1317958 -0.055493,0.2844015 0,0.2427817 0.1317958,0.4370071 0.1317958,0.1872888 0.3537676,0.2844015 V 18.000351 h 0.51331 V 12.52042 q 0.2427817,0.09711 0.4925001,0.166479 0.2497183,0.06937 0.5063733,0.124859 v -0.998873 q 0.2427817,0.04856 0.4925001,0.09018 0.2497183,0.03468 0.4994367,0.06937 v 0.998874 q 0.256655,0.02081 0.506373,0.03468 0.249719,0.01387 0.499437,0.01387 v -1.00581 q 0.4925,0 0.991937,-0.04162 v 0.998874 h 0.02775 q 0.235845,0 0.485564,-0.05549 0.256655,-0.05549 0.485563,-0.10405 v -0.998873 q 0.256655,-0.05549 0.506374,-0.124859 0.249718,-0.06937 0.4925,-0.166479 v 0.998873 q 0.05549,-0.02081 0.194225,-0.06937 0.145669,-0.05549 0.305211,-0.104049 0.159543,-0.04856 0.298275,-0.08324 0.145669,-0.04162 0.201162,-0.04162 0,0 0,-0.01387 0.0069,-0.02081 0.0069,-0.110985 0.0069,-0.09711 0.0069,-0.298275 0,-0.208099 0,-0.582676 0.4925,-0.117923 0.985,-0.145669 v 0.998873 q 0.0763,0 0.159543,-0.0069 0.08324,-0.01387 0.159542,-0.02081 0.166479,-0.01387 0.332958,-0.02081 0.173415,-0.0069 0.346831,-0.0069 v -0.998873 q 0.249718,0 0.499437,0.01387 0.249718,0.0069 0.499436,0.04162 v 0.998873 h 0.05549 q 0.228909,0 0.47169,0.04856 0.249719,0.04856 0.471691,0.10405 v -0.998874 q 0.263591,0.05549 0.51331,0.117923 0.256655,0.06243 0.4925,0.180352 v -1.019683 q -0.242782,-0.09018 -0.4925,-0.159543 -0.249719,-0.06937 -0.506374,-0.131795 V 9.2255254 q 0.256655,0.055493 0.506374,0.1317958 0.249718,0.069366 0.4925,0.1664789 V 8.5041169 Q 19.485999,8.4139408 19.236281,8.3515112 18.986562,8.282145 18.729907,8.226652 V 7.2277786 q 0.256655,0.06243 0.506374,0.1317958 0.249718,0.069366 0.4925,0.1734155 z m -3.010493,0.5202466 q 0.249718,0 0.499437,0.013873 0.249718,0.013873 0.499436,0.04162 V 8.0671097 Q 17.474379,8.0393633 17.224661,8.02549 16.974942,8.0116168 16.725224,8.0116168 Z m 0,1.9908102 q 0.249718,0 0.499437,0.02081 0.249718,0.013873 0.499436,0.034683 v 0.9780632 q -0.249718,-0.02081 -0.499436,-0.03468 -0.249719,-0.01387 -0.499437,-0.01387 z M 7.7422998,8.5318633 q 0.2427817,0.097113 0.4925001,0.1595423 0.2497183,0.055493 0.4994367,0.110986 V 9.801265 Q 8.4845182,9.745772 8.2347999,9.6764058 7.9850815,9.6070396 7.7422998,9.5168635 Z m 0,1.9908107 q 0.2427817,0.09711 0.4925001,0.159542 0.2497183,0.06243 0.4994367,0.117922 v 0.998874 Q 8.4845182,11.736582 8.2278632,11.674153 7.9781449,11.604786 7.7422998,11.486864 Z M 10.73892,10.0163 q 0.249718,0 0.4925,-0.01387 0.249718,-0.013873 0.499437,-0.034683 v 0.9780631 q -0.242782,0.02775 -0.4925,0.04856 -0.249719,0.01387 -0.499437,0.01387 z M 8.7411732,7.8173914 q 0.2427817,0.048556 0.4925001,0.090176 0.2497183,0.034683 0.4994367,0.055493 V 8.9549972 Q 9.4833916,8.9272507 9.2336733,8.885631 8.9839549,8.8440113 8.7411732,8.7954549 Z M 7.7422998,6.5341165 q 0.2427817,0.097113 0.4925001,0.1664789 0.2497183,0.06243 0.4994367,0.1179226 V 7.8035182 Q 8.4845182,7.7480252 8.2347999,7.6855956 7.9850815,7.6162294 7.7422998,7.5121801 Z m 4.9874302,3.2740851 0.09711,-0.02081 q 0.228908,-0.055493 0.45088,-0.1109859 0.228909,-0.055493 0.450881,-0.145669 v 0.9711272 q -0.242782,0.09711 -0.4925,0.166479 -0.249719,0.06243 -0.506374,0.117922 z m 3.003557,0.2635914 q 0.242782,-0.02775 0.4925,-0.04162 0.249719,-0.01387 0.4925,-0.01387 v 0.991937 q -0.242781,0 -0.4925,0.01387 -0.249718,0.0069 -0.4925,0.03468 z M 14.74135,9.2255254 q 0.242782,-0.06243 0.485564,-0.090176 0.249718,-0.034683 0.499436,-0.06243 v 0.9780632 q -0.242781,0.03468 -0.4925,0.06937 -0.249718,0.03468 -0.4925,0.09018 z m 0,-1.9977468 q 0.242782,-0.04162 0.485564,-0.083239 0.249718,-0.04162 0.499436,-0.06243 v 0.9850001 q -0.249718,0.02081 -0.499436,0.06243 -0.242782,0.04162 -0.485564,0.090176 z m -6.0001768,2.580423 q 0.2427817,0.055493 0.4925001,0.097113 0.2497183,0.034683 0.4994367,0.06243 V 10.938871 Q 9.4833916,10.924998 9.2336733,10.883378 8.9839549,10.841758 8.7411732,10.793202 Z M 10.73892,8.02549 q 0.249718,0 0.4925,-0.013873 0.249718,-0.013873 0.499437,-0.034683 v 0.9780635 q -0.249719,0.02081 -0.499437,0.034683 -0.242782,0.013873 -0.4925,0.013873 z m 4.994367,-1.9491905 q 0.242782,-0.027746 0.4925,-0.034683 0.249719,-0.013873 0.4925,-0.02081 v 0.9919368 q -0.499436,0 -0.985,0.04162 z M 12.72973,7.8173914 q 0.256655,-0.055493 0.506374,-0.1179226 0.249718,-0.069366 0.4925,-0.1664789 v 0.971127 q -0.242782,0.097113 -0.4925,0.1664789 -0.249719,0.06243 -0.506374,0.1109859 z m -0.985,1.1445424 q 0.242782,-0.02081 0.485564,-0.06243 0.249718,-0.04162 0.4925,-0.090176 V 9.801265 q -0.242782,0.055493 -0.4925,0.090176 -0.242782,0.027746 -0.485564,0.06243 z m -1.9977468,0 q 0.2427818,0.02081 0.4855638,0.04162 0.249718,0.013873 0.4925,0.013873 v 0.9850002 q -0.242782,0 -0.4925,-0.013873 -0.242782,-0.013873 -0.4855638,-0.034683 z m 0,-1.9977468 q 0.2427818,0.027747 0.4855638,0.048556 0.249718,0.013873 0.4925,0.013873 v 0.9850002 q -0.4925,0 -0.9780638,-0.06243 z M 13.742477,6.5271799 Q 13.978322,6.4231306 14.221104,6.360701 14.470822,6.2913348 14.72054,6.2358418 v 0.9780636 q -0.249718,0.06243 -0.499436,0.1317958 -0.242782,0.069366 -0.478627,0.1664789 z M 11.74473,6.964187 q 0.485564,-0.04162 0.978064,-0.145669 v 0.9850002 q -0.242782,0.048556 -0.4925,0.090176 -0.242782,0.04162 -0.485564,0.055493 z m 1.997747,1.5607397 q 0.235845,-0.097113 0.478627,-0.1664789 0.249718,-0.069366 0.499436,-0.1248592 v 0.9850002 q -0.249718,0.055493 -0.4925,0.1248592 -0.242781,0.06243 -0.485563,0.1595423 z M 9.7469832,10.966617 q 0.2427818,0.02081 0.4855638,0.03468 0.249718,0.01387 0.4925,0.01387 v 0.985 q -0.242782,0 -0.4925,-0.01387 -0.242782,-0.01387 -0.4855638,-0.04162 z m 1.9977468,0 q 0.242782,-0.02775 0.485564,-0.06243 0.249718,-0.04162 0.4925,-0.09711 v 0.991937 q -0.242782,0.04856 -0.4925,0.09018 -0.242782,0.03468 -0.485564,0.05549 z m 3.988557,-2.885634 q 0.242782,-0.027746 0.4925,-0.04162 0.249719,-0.013873 0.4925,-0.013873 v 0.9780636 q -0.242781,0 -0.4925,0.013873 -0.249718,0.00694 -0.4925,0.034683 z m -1.99081,2.441691 q 0.215035,-0.09711 0.437007,-0.159543 0.221972,-0.06243 0.45088,-0.117922 l 0.09018,-0.02081 v 0.978063 q -0.249718,0.05549 -0.4925,0.12486 -0.242781,0.06243 -0.485563,0.159542 z m 3.995494,-4.4463745 q 0.242781,0.034683 0.485563,0.069366 0.242782,0.034683 0.485563,0.090176 v 0.971127 q -0.47169,-0.090176 -0.971126,-0.1456691 z m 0,3.9954935 q 0.242781,0.02775 0.485563,0.06937 0.242782,0.03468 0.485563,0.08324 v 0.978063 q -0.242781,-0.05549 -0.485563,-0.08324 -0.242782,-0.03468 -0.485563,-0.06243 z m 0,-1.99081 q 0.242781,0.02081 0.485563,0.06243 0.242782,0.04162 0.485563,0.090176 v 0.9780636 q -0.242781,-0.055493 -0.485563,-0.090176 -0.242782,-0.04162 -0.485563,-0.069366 z"
         id="text5"
         style="font-size:14.2062px;line-height:0;-inkscape-font-specification:sans-serif;letter-spacing:0px;fill:#222222;stroke:#222222;stroke-width:0.0532734"
         aria-label="ðŸ" />
    </g>
    <text
       xml:space="preserve"
       style="font-style:normal;font-variant:normal;font-weight:500;font-stretch:normal;font-size:8.46667px;line-height:4.23333px;font-family:Montserrat;-inkscape-font-specification:'Montserrat Medium';text-align:center;text-anchor:middle;opacity:1;fill:#eeeeee;fill-opacity:1;fill-rule:nonzero;stroke:none;stroke-width:4.23333;stroke-linecap:butt;stroke-linejoin:round;stroke-miterlimit:4;stroke-dasharray:none;stroke-dashoffset:0;stroke-opacity:1;paint-order:stroke fill markers"
       x="-355.53735"
       y="24.113144"
       id="text4627-36-3"><tspan
         sodipodi:role="line"
         id="tspan4625-0-6"
         x="-355.53735"
         y="24.113144"
         style="font-style:normal;font-variant:normal;font-weight:500;font-stretch:normal;font-size:8.46667px;font-family:Montserrat;-inkscape-font-specification:'Montserrat Medium';text-align:center;text-anchor:middle;fill:#eeeeee;fill-opacity:1;stroke-width:4.23333">ORD</tspan></text>
  </g>
</svg>
